{
	"asset":{
		"generator":"Khronos glTF Blender I/O v3.5.30",
		"version":"2.0"
	},
	"scene":0,
	"scenes":[
		{
			"name":"Scene",
			"nodes":[
				0
			]
		}
	],
	"nodes":[
		{
			"mesh":0,
			"name":"Plane.002"
		}
	],
	"animations":[
		{
			"channels":[
				{
					"sampler":0,
					"target":{
						"node":0,
						"path":"translation"
					}
				},
				{
					"sampler":1,
					"target":{
						"node":0,
						"path":"rotation"
					}
				},
				{
					"sampler":2,
					"target":{
						"node":0,
						"path":"scale"
					}
				}
			],
			"name":"Plane.002",
			"samplers":[
				{
					"input":2,
					"interpolation":"LINEAR",
					"output":3
				},
				{
					"input":2,
					"interpolation":"LINEAR",
					"output":4
				},
				{
					"input":2,
					"interpolation":"LINEAR",
					"output":5
				}
			]
		}
	],
	"meshes":[
		{
			"name":"Plane.005",
			"primitives":[
				{
					"attributes":{
						"POSITION":0
					},
					"indices":1
				}
			]
		}
	],
	"accessors":[
		{
			"bufferView":0,
			"componentType":5126,
			"count":10282,
			"max":[
				32.00000762939453,
				1.3688464164733887,
				40.00000762939453
			],
			"min":[
				-32.00000762939453,
				-1.1920928244535389e-07,
				-40.00000762939453
			],
			"type":"VEC3"
		},
		{
			"bufferView":1,
			"componentType":5123,
			"count":58578,
			"type":"SCALAR"
		},
		{
			"bufferView":2,
			"componentType":5126,
			"count":61,
			"max":[
				2.5
			],
			"min":[
				0
			],
			"type":"SCALAR"
		},
		{
			"bufferView":3,
			"componentType":5126,
			"count":61,
			"type":"VEC3"
		},
		{
			"bufferView":4,
			"componentType":5126,
			"count":61,
			"type":"VEC4"
		},
		{
			"bufferView":5,
			"componentType":5126,
			"count":61,
			"type":"VEC3"
		}
	],
	"bufferViews":[
		{
			"buffer":0,
			"byteLength":123384,
			"byteOffset":0,
			"target":34962
		},
		{
			"buffer":0,
			"byteLength":117156,
			"byteOffset":123384,
			"target":34963
		},
		{
			"buffer":0,
			"byteLength":244,
			"byteOffset":240540
		},
		{
			"buffer":0,
			"byteLength":732,
			"byteOffset":240784
		},
		{
			"buffer":0,
			"byteLength":976,
			"byteOffset":241516
		},
		{
			"buffer":0,
			"byteLength":732,
			"byteOffset":242492
		}
	],
	"buffers":[
		{
			"byteLength":243224,
			"uri":"data:application/octet-stream;base64,"
		}
	]
}
