{
	"asset":{
		"generator":"Khronos glTF Blender I/O v3.5.30",
		"version":"2.0"
	},
	"extensionsUsed":[
		"KHR_materials_clearcoat",
		"KHR_materials_specular",
		"KHR_materials_ior"
	],
	"scene":0,
	"scenes":[
		{
			"name":"Scene",
			"nodes":[
				0
			]
		}
	],
	"nodes":[
		{
			"mesh":0,
			"name":"Icosphere"
		}
	],
	"materials":[
		{
			"doubleSided":true,
			"extensions":{
				"KHR_materials_clearcoat":{
					"clearcoatFactor":1,
					"clearcoatRoughnessFactor":0.3227272629737854
				},
				"KHR_materials_specular":{
					"specularColorFactor":[
						0.452713754019671,
						0.452713754019671,
						0.452713754019671
					]
				},
				"KHR_materials_ior":{
					"ior":1.4500000476837158
				}
			},
			"name":"Material",
			"pbrMetallicRoughness":{
				"baseColorFactor":[
					0.8000000715255737,
					0.0009707659482955933,
					0,
					1
				],
				"metallicFactor":0,
				"roughnessFactor":0.8136363625526428
			}
		},
		{
			"doubleSided":true,
			"extensions":{
				"KHR_materials_specular":{
					"specularColorFactor":[
						0,
						0,
						0
					]
				},
				"KHR_materials_ior":{
					"ior":1.4500000476837158
				}
			},
			"name":"Material.002",
			"pbrMetallicRoughness":{
				"baseColorFactor":[
					0.8000000715255737,
					0.43036043643951416,
					0,
					1
				],
				"roughnessFactor":0.23636364936828613
			}
		},
		{
			"doubleSided":true,
			"extensions":{
				"KHR_materials_specular":{
					"specularColorFactor":[
						2.371357614441398,
						2.371357614441398,
						2.371357614441398
					]
				},
				"KHR_materials_ior":{
					"ior":1.4500000476837158
				}
			},
			"name":"Material.003",
			"pbrMetallicRoughness":{
				"baseColorFactor":[
					0,
					0,
					0,
					1
				],
				"metallicFactor":0,
				"roughnessFactor":0.15909093618392944
			}
		}
	],
	"meshes":[
		{
			"name":"Icosphere",
			"primitives":[
				{
					"attributes":{
						"POSITION":0,
						"TEXCOORD_0":1,
						"NORMAL":2
					},
					"indices":3,
					"material":0
				},
				{
					"attributes":{
						"POSITION":4,
						"TEXCOORD_0":5,
						"NORMAL":6
					},
					"indices":7,
					"material":1
				},
				{
					"attributes":{
						"POSITION":8,
						"TEXCOORD_0":9,
						"NORMAL":10
					},
					"indices":11,
					"material":2
				}
			]
		}
	],
	"accessors":[
		{
			"bufferView":0,
			"componentType":5126,
			"count":205,
			"max":[
				1,
				2,
				0.9999999403953552
			],
			"min":[
				-0.9999999403953552,
				0,
				-0.9999999403953552
			],
			"type":"VEC3"
		},
		{
			"bufferView":1,
			"componentType":5126,
			"count":205,
			"type":"VEC2"
		},
		{
			"bufferView":2,
			"componentType":5126,
			"count":205,
			"type":"VEC3"
		},
		{
			"bufferView":3,
			"componentType":5123,
			"count":960,
			"type":"SCALAR"
		},
		{
			"bufferView":4,
			"componentType":5126,
			"count":297,
			"max":[
				1.2469699382781982,
				1.7918989658355713,
				1.064061164855957
			],
			"min":[
				-1.2469699382781982,
				1.0052707195281982,
				-0.9240611791610718
			],
			"type":"VEC3"
		},
		{
			"bufferView":5,
			"componentType":5126,
			"count":297,
			"type":"VEC2"
		},
		{
			"bufferView":6,
			"componentType":5126,
			"count":297,
			"type":"VEC3"
		},
		{
			"bufferView":7,
			"componentType":5123,
			"count":1224,
			"type":"SCALAR"
		},
		{
			"bufferView":8,
			"componentType":5126,
			"count":104,
			"max":[
				0.6800207495689392,
				1.3567734956741333,
				-0.6803018450737
			],
			"min":[
				-0.6800207495689392,
				0.8363603353500366,
				-1.001359462738037
			],
			"type":"VEC3"
		},
		{
			"bufferView":9,
			"componentType":5126,
			"count":104,
			"type":"VEC2"
		},
		{
			"bufferView":10,
			"componentType":5126,
			"count":104,
			"type":"VEC3"
		},
		{
			"bufferView":11,
			"componentType":5123,
			"count":324,
			"type":"SCALAR"
		}
	],
	"bufferViews":[
		{
			"buffer":0,
			"byteLength":2460,
			"byteOffset":0,
			"target":34962
		},
		{
			"buffer":0,
			"byteLength":1640,
			"byteOffset":2460,
			"target":34962
		},
		{
			"buffer":0,
			"byteLength":2460,
			"byteOffset":4100,
			"target":34962
		},
		{
			"buffer":0,
			"byteLength":1920,
			"byteOffset":6560,
			"target":34963
		},
		{
			"buffer":0,
			"byteLength":3564,
			"byteOffset":8480,
			"target":34962
		},
		{
			"buffer":0,
			"byteLength":2376,
			"byteOffset":12044,
			"target":34962
		},
		{
			"buffer":0,
			"byteLength":3564,
			"byteOffset":14420,
			"target":34962
		},
		{
			"buffer":0,
			"byteLength":2448,
			"byteOffset":17984,
			"target":34963
		},
		{
			"buffer":0,
			"byteLength":1248,
			"byteOffset":20432,
			"target":34962
		},
		{
			"buffer":0,
			"byteLength":832,
			"byteOffset":21680,
			"target":34962
		},
		{
			"buffer":0,
			"byteLength":1248,
			"byteOffset":22512,
			"target":34962
		},
		{
			"buffer":0,
			"byteLength":648,
			"byteOffset":23760,
			"target":34963
		}
	],
	"buffers":[
		{
			"byteLength":24408,
			"uri":"data:application/octet-stream;base64,"
		}
	]
}
