{
	"asset":{
		"generator":"Khronos glTF Blender I/O v3.5.30",
		"version":"2.0"
	},
	"extensionsUsed":[
		"KHR_materials_specular",
		"KHR_materials_ior"
	],
	"scene":0,
	"scenes":[
		{
			"name":"Scene",
			"nodes":[
				0
			]
		}
	],
	"nodes":[
		{
			"mesh":0,
			"name":"Cylinder.001"
		}
	],
	"materials":[
		{
			"doubleSided":true,
			"extensions":{
				"KHR_materials_specular":{
					"specularColorFactor":[
						0.5616373427546403,
						0.5616373427546403,
						0.5616373427546403
					]
				},
				"KHR_materials_ior":{
					"ior":1.4500000476837158
				}
			},
			"name":"Material",
			"pbrMetallicRoughness":{
				"baseColorFactor":[
					0.11068835854530334,
					0.11068835854530334,
					0.11068835854530334,
					1
				],
				"metallicFactor":0,
				"roughnessFactor":0.7736842036247253
			}
		}
	],
	"meshes":[
		{
			"name":"Cylinder.002",
			"primitives":[
				{
					"attributes":{
						"POSITION":0,
						"TEXCOORD_0":1,
						"NORMAL":2
					},
					"indices":3,
					"material":0
				}
			]
		}
	],
	"accessors":[
		{
			"bufferView":0,
			"componentType":5126,
			"count":264,
			"max":[
				0.8645452857017517,
				3.422142505645752,
				1.1660192012786865
			],
			"min":[
				-0.8721086382865906,
				-0.8542543649673462,
				-0.9701273441314697
			],
			"type":"VEC3"
		},
		{
			"bufferView":1,
			"componentType":5126,
			"count":264,
			"type":"VEC2"
		},
		{
			"bufferView":2,
			"componentType":5126,
			"count":264,
			"type":"VEC3"
		},
		{
			"bufferView":3,
			"componentType":5123,
			"count":1572,
			"type":"SCALAR"
		}
	],
	"bufferViews":[
		{
			"buffer":0,
			"byteLength":3168,
			"byteOffset":0,
			"target":34962
		},
		{
			"buffer":0,
			"byteLength":2112,
			"byteOffset":3168,
			"target":34962
		},
		{
			"buffer":0,
			"byteLength":3168,
			"byteOffset":5280,
			"target":34962
		},
		{
			"buffer":0,
			"byteLength":3144,
			"byteOffset":8448,
			"target":34963
		}
	],
	"buffers":[
		{
			"byteLength":11592,
			"uri":"data:application/octet-stream;base64,"
		}
	]
}
