{
	"asset":{
		"generator":"Khronos glTF Blender I/O v3.5.30",
		"version":"2.0"
	},
	"scene":0,
	"scenes":[
		{
			"name":"Scene",
			"nodes":[
				0
			]
		}
	],
	"nodes":[
		{
			"mesh":0,
			"name":"Cylinder.001",
			"translation":[
				0,
				0.3617595434188843,
				0
			]
		}
	],
	"meshes":[
		{
			"name":"Cylinder.002",
			"primitives":[
				{
					"attributes":{
						"POSITION":0,
						"TEXCOORD_0":1,
						"NORMAL":2
					},
					"indices":3
				}
			]
		}
	],
	"accessors":[
		{
			"bufferView":0,
			"componentType":5126,
			"count":17494,
			"max":[
				0.6668044328689575,
				2.2807841300964355,
				0.898561954498291
			],
			"min":[
				-0.6682204008102417,
				-1.0176540613174438,
				-0.7464191913604736
			],
			"type":"VEC3"
		},
		{
			"bufferView":1,
			"componentType":5126,
			"count":17494,
			"type":"VEC2"
		},
		{
			"bufferView":2,
			"componentType":5126,
			"count":17494,
			"type":"VEC3"
		},
		{
			"bufferView":3,
			"componentType":5123,
			"count":104952,
			"type":"SCALAR"
		}
	],
	"bufferViews":[
		{
			"buffer":0,
			"byteLength":209928,
			"byteOffset":0,
			"target":34962
		},
		{
			"buffer":0,
			"byteLength":139952,
			"byteOffset":209928,
			"target":34962
		},
		{
			"buffer":0,
			"byteLength":209928,
			"byteOffset":349880,
			"target":34962
		},
		{
			"buffer":0,
			"byteLength":209904,
			"byteOffset":559808,
			"target":34963
		}
	],
	"buffers":[
		{
			"byteLength":769712,
			"uri":"data:application/octet-stream;base64,"
		}
	]
}
