{
	"asset":{
		"generator":"Khronos glTF Blender I/O v3.5.30",
		"version":"2.0"
	},
	"scene":0,
	"scenes":[
		{
			"name":"Scene",
			"nodes":[
				0
			]
		}
	],
	"nodes":[
		{
			"mesh":0,
			"name":"Plane.001"
		}
	],
	"meshes":[
		{
			"name":"Plane.001",
			"primitives":[
				{
					"attributes":{
						"POSITION":0,
						"TEXCOORD_0":1,
						"NORMAL":2
					},
					"indices":3
				}
			]
		}
	],
	"accessors":[
		{
			"bufferView":0,
			"componentType":5126,
			"count":64,
			"max":[
				76.98800659179688,
				1.6153477430343628,
				100.7374496459961
			],
			"min":[
				-77.52439880371094,
				1.6153476238250732,
				-100.12866973876953
			],
			"type":"VEC3"
		},
		{
			"bufferView":1,
			"componentType":5126,
			"count":64,
			"type":"VEC2"
		},
		{
			"bufferView":2,
			"componentType":5126,
			"count":64,
			"type":"VEC3"
		},
		{
			"bufferView":3,
			"componentType":5123,
			"count":312,
			"type":"SCALAR"
		}
	],
	"bufferViews":[
		{
			"buffer":0,
			"byteLength":768,
			"byteOffset":0,
			"target":34962
		},
		{
			"buffer":0,
			"byteLength":512,
			"byteOffset":768,
			"target":34962
		},
		{
			"buffer":0,
			"byteLength":768,
			"byteOffset":1280,
			"target":34962
		},
		{
			"buffer":0,
			"byteLength":624,
			"byteOffset":2048,
			"target":34963
		}
	],
	"buffers":[
		{
			"byteLength":2672,
			"uri":"data:application/octet-stream;base64,"
		}
	]
}
