{
	"asset":{
		"generator":"Khronos glTF Blender I/O v3.5.30",
		"version":"2.0"
	},
	"scene":0,
	"scenes":[
		{
			"name":"Scene",
			"nodes":[
				0
			]
		}
	],
	"nodes":[
		{
			"mesh":0,
			"name":"Plane.002"
		}
	],
	"meshes":[
		{
			"name":"Plane.002",
			"primitives":[
				{
					"attributes":{
						"POSITION":0,
						"TEXCOORD_0":1,
						"NORMAL":2
					},
					"indices":3
				}
			]
		}
	],
	"accessors":[
		{
			"bufferView":0,
			"componentType":5126,
			"count":357,
			"max":[
				32.00000762939453,
				1.5,
				40.00000762939453
			],
			"min":[
				-32.00000762939453,
				0.02777772955596447,
				-40.00000762939453
			],
			"type":"VEC3"
		},
		{
			"bufferView":1,
			"componentType":5126,
			"count":357,
			"type":"VEC2"
		},
		{
			"bufferView":2,
			"componentType":5126,
			"count":357,
			"type":"VEC3"
		},
		{
			"bufferView":3,
			"componentType":5123,
			"count":1920,
			"type":"SCALAR"
		}
	],
	"bufferViews":[
		{
			"buffer":0,
			"byteLength":4284,
			"byteOffset":0,
			"target":34962
		},
		{
			"buffer":0,
			"byteLength":2856,
			"byteOffset":4284,
			"target":34962
		},
		{
			"buffer":0,
			"byteLength":4284,
			"byteOffset":7140,
			"target":34962
		},
		{
			"buffer":0,
			"byteLength":3840,
			"byteOffset":11424,
			"target":34963
		}
	],
	"buffers":[
		{
			"byteLength":15264,
			"uri":"data:application/octet-stream;base64,"
		}
	]
}
