{
	"asset":{
		"generator":"Khronos glTF Blender I/O v3.5.30",
		"version":"2.0"
	},
	"extensionsUsed":[
		"KHR_materials_specular",
		"KHR_materials_ior"
	],
	"scene":0,
	"scenes":[
		{
			"name":"Scene",
			"nodes":[
				0
			]
		}
	],
	"nodes":[
		{
			"mesh":0,
			"name":"Slow"
		}
	],
	"animations":[
		{
			"channels":[
				{
					"sampler":0,
					"target":{
						"node":0,
						"path":"scale"
					}
				},
				{
					"sampler":1,
					"target":{
						"node":0,
						"path":"translation"
					}
				}
			],
			"name":"SlowAction.001",
			"samplers":[
				{
					"input":4,
					"interpolation":"LINEAR",
					"output":5
				},
				{
					"input":4,
					"interpolation":"LINEAR",
					"output":6
				}
			]
		}
	],
	"materials":[
		{
			"doubleSided":true,
			"extensions":{
				"KHR_materials_specular":{
					"specularColorFactor":[
						2.371357614441398,
						2.371357614441398,
						2.371357614441398
					]
				},
				"KHR_materials_ior":{
					"ior":1.4500000476837158
				}
			},
			"name":"Material",
			"pbrMetallicRoughness":{
				"baseColorTexture":{
					"index":0
				},
				"metallicRoughnessTexture":{
					"index":1
				}
			}
		}
	],
	"meshes":[
		{
			"name":"Plane",
			"primitives":[
				{
					"attributes":{
						"POSITION":0,
						"TEXCOORD_0":1,
						"NORMAL":2
					},
					"indices":3,
					"material":0
				}
			]
		}
	],
	"textures":[
		{
			"sampler":0,
			"source":0
		},
		{
			"sampler":0,
			"source":1
		}
	],
	"images":[
		{
			"bufferView":4,
			"mimeType":"image/png",
			"name":"slow-albedo"
		},
		{
			"bufferView":5,
			"mimeType":"image/png",
			"name":"slow-metalness"
		}
	],
	"accessors":[
		{
			"bufferView":0,
			"componentType":5126,
			"count":636,
			"max":[
				1.1608463525772095,
				3.1573925018310547,
				1.7048587799072266
			],
			"min":[
				-1.3407407999038696,
				0.026050209999084473,
				-1.2683327198028564
			],
			"type":"VEC3"
		},
		{
			"bufferView":1,
			"componentType":5126,
			"count":636,
			"type":"VEC2"
		},
		{
			"bufferView":2,
			"componentType":5126,
			"count":636,
			"type":"VEC3"
		},
		{
			"bufferView":3,
			"componentType":5123,
			"count":2472,
			"type":"SCALAR"
		},
		{
			"bufferView":6,
			"componentType":5126,
			"count":61,
			"max":[
				2.5
			],
			"min":[
				0
			],
			"type":"SCALAR"
		},
		{
			"bufferView":7,
			"componentType":5126,
			"count":61,
			"type":"VEC3"
		},
		{
			"bufferView":8,
			"componentType":5126,
			"count":61,
			"type":"VEC3"
		}
	],
	"bufferViews":[
		{
			"buffer":0,
			"byteLength":7632,
			"byteOffset":0,
			"target":34962
		},
		{
			"buffer":0,
			"byteLength":5088,
			"byteOffset":7632,
			"target":34962
		},
		{
			"buffer":0,
			"byteLength":7632,
			"byteOffset":12720,
			"target":34962
		},
		{
			"buffer":0,
			"byteLength":4944,
			"byteOffset":20352,
			"target":34963
		},
		{
			"buffer":0,
			"byteLength":37784,
			"byteOffset":25296
		},
		{
			"buffer":0,
			"byteLength":26234,
			"byteOffset":63080
		},
		{
			"buffer":0,
			"byteLength":244,
			"byteOffset":89316
		},
		{
			"buffer":0,
			"byteLength":732,
			"byteOffset":89560
		},
		{
			"buffer":0,
			"byteLength":732,
			"byteOffset":90292
		}
	],
	"samplers":[
		{
			"magFilter":9729,
			"minFilter":9987
		}
	],
	"buffers":[
		{
			"byteLength":91024,
			"uri":"data:application/octet-stream;base64,"
		}
	]
}
